<?xml version="1.0" encoding="utf-8"?><svg viewBox="0 0 513.64 513.64" xmlns="http://www.w3.org/2000/svg" xmlns:xlink="http://www.w3.org/1999/xlink"><style>:root>svg{display:none}:root>svg:target{display:block}</style><svg viewBox="0 0 512.002 512.002" id="arrow" xmlns="http://www.w3.org/2000/svg"><path d="M388.425 241.951L151.609 5.79c-7.759-7.733-20.321-7.72-28.067.04-7.74 7.759-7.72 20.328.04 28.067l222.72 222.105-222.728 222.104c-7.759 7.74-7.779 20.301-.04 28.061a19.8 19.8 0 0014.057 5.835 19.79 19.79 0 0014.017-5.795l236.817-236.155c3.737-3.718 5.834-8.778 5.834-14.05s-2.103-10.326-5.834-14.051z"/></svg><svg viewBox="0 0 451.846 451.847" id="arrow-bold" xmlns="http://www.w3.org/2000/svg"><path d="M345.441 248.292L151.154 442.573c-12.359 12.365-32.397 12.365-44.75 0-12.354-12.354-12.354-32.391 0-44.744L278.318 225.92 106.409 54.017c-12.354-12.359-12.354-32.394 0-44.748 12.354-12.359 32.391-12.359 44.75 0l194.287 194.284c6.177 6.18 9.262 14.271 9.262 22.366 0 8.099-3.091 16.196-9.267 22.373z"/></svg><svg fill="#fff" viewBox="0 0 451.846 451.847" id="arrow-bold-w" xmlns="http://www.w3.org/2000/svg"><path d="M345.441 248.292L151.154 442.573c-12.359 12.365-32.397 12.365-44.75 0-12.354-12.354-12.354-32.391 0-44.744L278.318 225.92 106.409 54.017c-12.354-12.359-12.354-32.394 0-44.748 12.354-12.359 32.391-12.359 44.75 0l194.287 194.284c6.177 6.18 9.262 14.271 9.262 22.366 0 8.099-3.091 16.196-9.267 22.373z"/></svg><svg viewBox="0 0 512.002 512.002" fill="#f39727" id="arrow-orange" xmlns="http://www.w3.org/2000/svg"><path d="M388.425 241.951L151.609 5.79c-7.759-7.733-20.321-7.72-28.067.04-7.74 7.759-7.72 20.328.04 28.067l222.72 222.105-222.728 222.104c-7.759 7.74-7.779 20.301-.04 28.061a19.8 19.8 0 0014.057 5.835 19.79 19.79 0 0014.017-5.795l236.817-236.155c3.737-3.718 5.834-8.778 5.834-14.05s-2.103-10.326-5.834-14.051z"/></svg><svg viewBox="0 0 510.383 510.383" fill="#f39727" id="cash-flow" xmlns="http://www.w3.org/2000/svg"><path d="M116.717 437.637l-8.155-57.625c-1.161-8.202-8.759-13.927-16.953-12.75-8.203 1.16-13.911 8.751-12.75 16.953l1.826 12.905a225.536 225.536 0 01-36.563-64.5C-16.684 166.371 130.164-1.298 301.375 35.224c8.1 1.724 16.07-3.438 17.8-11.54 1.729-8.102-3.438-16.071-11.54-17.8C114.303-35.364-53.388 153.359 15.948 342.926a255.575 255.575 0 0041.338 72.975l-14.494-2.784c-8.138-1.561-15.998 3.765-17.561 11.9-1.563 8.136 3.765 15.998 11.9 17.561l60.624 11.646c10.918 3.081 20.41-6.373 18.962-16.587zm378.04-270.019a255.575 255.575 0 00-41.338-72.975l14.495 2.784c8.131 1.56 15.998-3.765 17.561-11.9 1.563-8.136-3.765-15.998-11.9-17.561l-60.636-11.649c-10.779-3.034-20.42 6.215-18.95 16.588l8.155 57.626c1.06 7.49 7.479 12.9 14.833 12.9 9.169 0 16.144-8.103 14.87-17.104l-1.826-12.905a225.544 225.544 0 0136.563 64.499c42.585 116.433-17.31 245.865-133.515 288.525-39.755 14.595-82.543 17.661-123.738 8.872-8.099-1.728-16.071 3.438-17.8 11.54s3.438 16.071 11.54 17.8c46.737 9.972 95.264 6.496 140.336-10.05 132.036-48.47 199.727-194.723 151.35-326.99z"/><path d="M410.845 256.059c0-85.883-69.754-155.754-155.493-155.754S99.859 170.176 99.859 256.059s69.754 155.754 155.493 155.754 155.493-69.871 155.493-155.754zm-280.986 0c0-69.341 56.296-125.754 125.493-125.754s125.493 56.413 125.493 125.754-56.296 125.754-125.493 125.754S129.859 325.4 129.859 256.059z"/><path d="M270.352 340.313v-12.521c25.993 0 44.079-20.4 44.079-43.366 0-23.913-19.431-43.367-43.314-43.367h-31.529c-7.342 0-13.314-5.996-13.314-13.367 0-7.114 5.599-13.366 13.523-13.366h30.187c5.297.053 10.539 2.44 14.388 6.555 5.658 6.05 15.15 6.366 21.201.707 6.05-5.659 6.366-15.151.707-21.201-9.408-10.058-22.494-15.899-35.928-16.054v-12.527c0-8.284-6.716-15-15-15s-15 6.716-15 15v12.521c-25.993 0-44.079 20.4-44.079 43.366 0 23.913 19.431 43.367 43.314 43.367h31.529c7.342 0 13.314 5.996 13.314 13.367 0 7.421-5.989 13.367-13.312 13.367l-.212-.001h-32.938c-3.737-.038-7.712-1.393-11.198-3.815-6.804-4.728-16.151-3.045-20.878 3.757-4.728 6.803-3.046 16.149 3.757 20.878 10.27 7.138 19.829 9.181 30.702 9.181v12.521c0 8.284 6.716 15 15 15 8.285-.002 15.001-6.718 15.001-15.002z"/></svg><svg viewBox="0 0 511.072 511.072" id="chat" xmlns="http://www.w3.org/2000/svg"><path d="M74.39 480.536H38.177l25.607-25.607c13.807-13.807 22.429-31.765 24.747-51.246-36.029-23.644-62.375-54.751-76.478-90.425C-2.04 277.611-3.811 238.37 6.932 199.776c12.89-46.309 43.123-88.518 85.128-118.853 45.646-32.963 102.47-50.387 164.33-50.387 77.927 0 143.611 22.389 189.948 64.745 41.744 38.159 64.734 89.63 64.734 144.933 0 26.868-5.471 53.011-16.26 77.703-11.165 25.551-27.514 48.302-48.593 67.619-46.399 42.523-112.042 65-189.83 65-28.877 0-59.01-3.855-85.913-10.929-25.465 26.123-59.972 40.929-96.086 40.929zm182-420c-124.039 0-200.15 73.973-220.557 147.285-19.284 69.28 9.143 134.743 76.043 175.115l7.475 4.511-.23 8.727c-.456 17.274-4.574 33.912-11.945 48.952 17.949-6.073 34.236-17.083 46.99-32.151l6.342-7.493 9.405 2.813c26.393 7.894 57.104 12.241 86.477 12.241 154.372 0 224.682-93.473 224.682-180.322 0-46.776-19.524-90.384-54.976-122.79-40.713-37.216-99.397-56.888-169.706-56.888z"/></svg><svg viewBox="0 0 384 384" id="clock" xmlns="http://www.w3.org/2000/svg"><path d="M343.594 101.04c-7.953 3.847-11.281 13.417-7.434 21.366C346.672 144.121 352 167.527 352 192c0 88.223-71.777 160-160 160S32 280.223 32 192 103.777 32 192 32c36.559 0 70.902 11.938 99.328 34.52 6.895 5.503 16.977 4.351 22.48-2.567 5.504-6.914 4.352-16.984-2.57-22.48C277.586 14.727 235.238 0 192 0 86.137 0 0 86.137 0 192s86.137 192 192 192 192-86.137 192-192c0-29.336-6.406-57.45-19.04-83.527-3.839-7.97-13.44-11.29-21.366-7.434zm0 0"/><path d="M192 64c-8.832 0-16 7.168-16 16v112c0 8.832 7.168 16 16 16h80c8.832 0 16-7.168 16-16s-7.168-16-16-16h-64V80c0-8.832-7.168-16-16-16zm0 0"/></svg><svg viewBox="0 0 329.269 329" id="close" xmlns="http://www.w3.org/2000/svg"><path d="M194.8 164.77L323.013 36.555c8.343-8.34 8.343-21.825 0-30.164-8.34-8.34-21.825-8.34-30.164 0L164.633 134.605 36.422 6.391c-8.344-8.34-21.824-8.34-30.164 0-8.344 8.34-8.344 21.824 0 30.164l128.21 128.215L6.259 292.984c-8.344 8.34-8.344 21.825 0 30.164a21.266 21.266 0 0015.082 6.25c5.46 0 10.922-2.09 15.082-6.25l128.21-128.214 128.216 128.214a21.273 21.273 0 0015.082 6.25c5.46 0 10.922-2.09 15.082-6.25 8.343-8.34 8.343-21.824 0-30.164zm0 0"/></svg><svg viewBox="0 0 511.874 511.874" id="contact" xmlns="http://www.w3.org/2000/svg"><path d="M490.114 12.813H132.568c-12.012.014-21.746 9.748-21.76 21.76v98.62l-16.35-24.525c-7.484-11.289-22.535-14.676-34.133-7.68l-33.638 20.224a49.355 49.355 0 00-22.545 29.244C-8.129 195.137.976 272.116 113.966 385.123c89.855 89.762 156.85 113.937 203.024 113.937 10.69.049 21.339-1.34 31.659-4.13a49.44 49.44 0 0029.252-22.519l20.198-33.673c6.968-11.589 3.584-26.609-7.68-34.091l-80.546-53.692c-11.049-7.308-25.859-4.905-34.031 5.521l-23.45 30.148a8.166 8.166 0 01-10.445 2.21l-4.463-2.458c-14.686-8.004-32.964-17.971-69.879-54.886a605.694 605.694 0 01-11.008-11.307h333.517c11.982.009 21.713-9.676 21.76-21.658V34.573c-.014-12.012-9.748-21.746-21.76-21.76zM229.318 401.362l4.335 2.381c10.897 6.093 24.614 3.266 32.213-6.639l23.45-30.148a8.294 8.294 0 0111.093-1.801l80.546 53.692a8.243 8.243 0 012.5 11.093l-20.198 33.673a32.425 32.425 0 01-19.123 14.848c-40.337 11.093-110.933 1.707-218.078-105.446S9.56 195.273 20.627 154.97a32.427 32.427 0 0114.839-19.123l33.673-20.207a8.251 8.251 0 0111.093 2.5l53.717 80.546a8.285 8.285 0 01-1.801 11.093l-30.157 23.458c-9.903 7.597-12.731 21.311-6.639 32.205l2.389 4.335c8.533 15.65 19.14 35.123 57.805 73.779 38.666 38.657 58.131 49.272 73.772 57.806zm265.49-102.836a4.659 4.659 0 01-4.693 4.608H141.203a215.204 215.204 0 01-28.476-41.506l-2.458-4.48a8.14 8.14 0 012.202-10.428l30.157-23.458c10.43-8.17 12.833-22.982 5.521-34.031l-20.275-30.43V34.573a4.642 4.642 0 014.693-4.693h357.547a4.642 4.642 0 014.693 4.693v263.953z"/><path d="M460.725 52.323l-142.618 108.16a11.512 11.512 0 01-13.534 0L162.008 52.323a8.535 8.535 0 00-11.959 1.643 8.535 8.535 0 001.643 11.959l142.583 108.151a28.721 28.721 0 0034.133 0L471.034 65.925a8.53 8.53 0 001.638-11.963 8.532 8.532 0 00-11.947-1.639zm-222.208 122.47l-87.415 93.611a8.535 8.535 0 0012.484 11.64l87.416-93.653a8.535 8.535 0 00-12.485-11.598zm146.211 0a8.534 8.534 0 00-12.062-.422 8.534 8.534 0 00-.422 12.062l87.39 93.611a8.534 8.534 0 0012.062.422 8.534 8.534 0 00.422-12.062l-87.39-93.611z"/></svg><svg data-name="Out line" fill="#f39727" viewBox="0 0 512 512" id="deposit" xmlns="http://www.w3.org/2000/svg"><path d="M490.128 80.288l-232-64a8.01 8.01 0 00-4.256 0l-232 64A8 8 0 0016 88v64a8 8 0 008 8h16v40a24.038 24.038 0 0016 22.624v194.752A24.038 24.038 0 0040 440v8a24.027 24.027 0 00-24 24v16a8 8 0 008 8h320v-16H32v-8a8.01 8.01 0 018-8h304v-16H184v-8a24.038 24.038 0 00-16-22.624V222.624A24.039 24.039 0 00184 200v-8h96v-16H56v-16h224v-16H32V94.092l224-61.793 224 61.793V144h-16a8 8 0 00-8 8v48a8.038 8.038 0 01-4.006 6.935l8.012 13.85A24.085 24.085 0 00472 200v-40h16a8 8 0 008-8V88a8 8 0 00-5.872-7.712zM56 440a8.01 8.01 0 018-8h9.376A23.882 23.882 0 0072 440v8H56zm32-240v-8h16v8a23.882 23.882 0 001.376 8H96a8.01 8.01 0 01-8-8zm16 248H88v-8a8.01 8.01 0 018-8h9.376a23.882 23.882 0 00-1.376 8zm16-224v192h-16V224zm16 0h16v192h-16zm-48 0v192H72V224zm32 224v-8a8.01 8.01 0 018-8h32a8.01 8.01 0 018 8v8zm48-248a8.01 8.01 0 01-8 8h-32a8.01 8.01 0 01-8-8v-8h48zm-96-8v8a23.882 23.882 0 001.376 8H64a8.01 8.01 0 01-8-8v-8z"/><path d="M256 48a40 40 0 1040 40 40.046 40.046 0 00-40-40zm0 64a24 24 0 1124-24 24.027 24.027 0 01-24 24zm56-32h32v16h-32zm-144 0h32v16h-32zM48 112h152v16H48zm264 0h152v16H312zm96 160a40 40 0 10-40 40 40.046 40.046 0 0040-40zm-64 0a24 24 0 1124 24 24.027 24.027 0 01-24-24z"/><path d="M367.602 409.09L387.056 448H368a8 8 0 00-8 8v40h16v-32h96v32h16v-40a8 8 0 00-8-8h-6.241l19.783-98.918a44.695 44.695 0 00-3-27.06l-17.484-39.339A44.976 44.976 0 00440 256.721V152a8 8 0 00-8-8H304a8 8 0 00-8 8v240a8 8 0 008 8h59.823a71.625 71.625 0 003.779 9.09zM440 392V273.13a28.954 28.954 0 0118.437 16.05l17.484 39.34a28.779 28.779 0 011.932 17.424L457.44 448h-52.497l-23.032-46.064A56.282 56.282 0 01376 376.892V352a8 8 0 0116 0v24a24.027 24.027 0 0024 24h16a8 8 0 008-8zm-32-16v-15.997a39.885 39.885 0 0116-7.188V384h-8a8.01 8.01 0 01-8-8zm16-216v31.195A40.12 40.12 0 01392.805 160zm-112 0h31.195A40.12 40.12 0 01312 191.195zm0 224v-31.195A40.12 40.12 0 01343.195 384zm47.42 0A56.113 56.113 0 00312 336.58V207.42A56.114 56.114 0 00359.42 160h17.16A56.114 56.114 0 00424 207.42v129.158a55.853 55.853 0 00-18.004 5.834A23.996 23.996 0 00360 352v24.892c0 2.373.127 4.745.364 7.108z"/></svg><svg viewBox="0 0 512 512" id="email" xmlns="http://www.w3.org/2000/svg"><path d="M478.5 83.5h-385C75.028 83.5 60 98.528 60 117v71.5H7.5c-4.142 0-7.5 3.357-7.5 7.5s3.358 7.5 7.5 7.5h90c4.142 0 7.5-3.357 7.5-7.5s-3.358-7.5-7.5-7.5H75V117c0-2.342.455-4.576 1.253-6.64L221.893 256 76.253 401.64A18.365 18.365 0 0175 395v-49c0-4.143-3.358-7.5-7.5-7.5S60 341.857 60 346v49c0 18.472 15.028 33.5 33.5 33.5h385c18.472 0 33.5-15.028 33.5-33.5V117c0-18.472-15.028-33.5-33.5-33.5zM350.107 256l145.64-145.64A18.365 18.365 0 01497 117v278c0 2.342-.455 4.576-1.253 6.64zM478.5 98.5c2.342 0 4.576.455 6.64 1.253l-167.32 167.32c-17.545 17.547-46.094 17.547-63.64 0L86.86 99.753A18.365 18.365 0 0193.5 98.5zm-385 315c-2.342 0-4.576-.455-6.64-1.253l145.64-145.64 11.074 11.074c11.697 11.696 27.062 17.545 42.427 17.545s30.729-5.849 42.426-17.545l11.074-11.074 145.64 145.64a18.365 18.365 0 01-6.64 1.253z"/><path d="M67.5 218.5A7.5 7.5 0 0060 226v22.5H7.5c-4.142 0-7.5 3.357-7.5 7.5s3.358 7.5 7.5 7.5h120c4.142 0 7.5-3.357 7.5-7.5s-3.358-7.5-7.5-7.5H75V226a7.5 7.5 0 00-7.5-7.5zm30 105c4.142 0 7.5-3.357 7.5-7.5s-3.358-7.5-7.5-7.5H75V286c0-4.143-3.358-7.5-7.5-7.5S60 281.857 60 286v22.5H7.5c-4.142 0-7.5 3.357-7.5 7.5s3.358 7.5 7.5 7.5z"/></svg><svg viewBox="0 0 512 512" id="envelope" xmlns="http://www.w3.org/2000/svg"><path d="M10.688 95.156C80.958 154.667 204.26 259.365 240.5 292.01c4.865 4.406 10.083 6.646 15.5 6.646 5.406 0 10.615-2.219 15.469-6.604 36.271-32.677 159.573-137.385 229.844-196.896 4.375-3.698 5.042-10.198 1.5-14.719C494.625 69.99 482.417 64 469.333 64H42.667c-13.083 0-25.292 5.99-33.479 16.438-3.542 4.52-2.875 11.02 1.5 14.718zm495.125 32.25a10.618 10.618 0 00-11.375 1.542c-46.021 39.01-106.656 90.552-152.385 129.885a10.654 10.654 0 00-3.708 8.271 10.644 10.644 0 004 8.135c42.49 34.031 106.521 80.844 152.76 114.115a10.626 10.626 0 006.229 2.01c1.667 0 3.333-.385 4.865-1.177a10.66 10.66 0 005.802-9.49V137.083a10.663 10.663 0 00-6.188-9.677zM16.896 389.354c46.25-33.271 110.292-80.083 152.771-114.115a10.646 10.646 0 004-8.135 10.654 10.654 0 00-3.708-8.271C124.229 219.5 63.583 167.958 17.563 128.948a10.674 10.674 0 00-11.375-1.542A10.66 10.66 0 000 137.083v243.615c0 4 2.24 7.667 5.802 9.49a10.566 10.566 0 004.865 1.177 10.62 10.62 0 006.229-2.011z"/><path d="M498.927 418.375c-44.656-31.948-126.917-91.51-176.021-131.365-4-3.26-9.792-3.156-13.729.24-9.635 8.406-17.698 15.49-23.417 20.635-17.563 15.854-41.938 15.854-59.542-.021-5.698-5.135-13.76-12.24-23.396-20.615-3.906-3.417-9.708-3.521-13.719-.24-48.938 39.719-131.292 99.354-176.021 131.365a10.703 10.703 0 00-4.406 7.604 10.67 10.67 0 002.802 8.333C19.552 443.01 30.927 448 42.667 448h426.667c11.74 0 23.104-4.99 31.198-13.688a10.676 10.676 0 002.802-8.323 10.73 10.73 0 00-4.407-7.614z"/></svg><svg viewBox="0 0 479.058 479.058" id="envelope2" xmlns="http://www.w3.org/2000/svg"><path d="M434.146 59.882H44.912C20.146 59.882 0 80.028 0 104.794v269.47c0 24.766 20.146 44.912 44.912 44.912h389.234c24.766 0 44.912-20.146 44.912-44.912v-269.47c0-24.766-20.146-44.912-44.912-44.912zm0 29.941c2.034 0 3.969.422 5.738 1.159L239.529 264.631 39.173 90.982a14.902 14.902 0 015.738-1.159zm0 299.411H44.912c-8.26 0-14.971-6.71-14.971-14.971V122.615l199.778 173.141c2.822 2.441 6.316 3.655 9.81 3.655s6.988-1.213 9.81-3.655l199.778-173.141v251.649c-.001 8.26-6.711 14.97-14.971 14.97z"/></svg><svg viewBox="0 0 512 512" id="facebook" xmlns="http://www.w3.org/2000/svg"><path d="M297.277 508.668zm5.121-.875c-1.02.187-2.039.36-3.058.535 1.02-.176 2.039-.348 3.058-.535zm-17.261 2.547zm4.918-.602zm19.312-3.328zm17.297-4.297c-.726.207-1.453.403-2.18.606.727-.203 1.454-.399 2.18-.606zm-5.23 1.43c-.79.207-1.582.418-2.375.617.793-.2 1.586-.406 2.375-.617zm-6.844 1.711c-.836.195-1.68.379-2.524.566.844-.187 1.688-.37 2.524-.566zm-37.063 5.836zM512 256C512 114.637 397.363 0 256 0S0 114.637 0 256s114.637 256 256 256c1.504 0 3-.031 4.5-.059V312.656h-55V248.56h55v-47.17c0-54.703 33.395-84.477 82.191-84.477 23.368 0 43.454 1.742 49.309 2.52v57.171h-33.648c-26.547 0-31.688 12.618-31.688 31.13v40.824h63.477l-8.274 64.097h-55.203V502.11C433.668 471.434 512 372.852 512 256zM272.914 511.43zm-8.16.406zm0 0"/></svg><svg viewBox="0 0 512 512" fill="#f39727" id="focus" xmlns="http://www.w3.org/2000/svg"><path d="M503.467 247.467H486.4C482.008 126.799 385.201 29.992 264.533 25.6V8.533C264.533 3.82 260.713 0 256 0s-8.533 3.82-8.533 8.533V25.6C126.799 29.992 29.992 126.799 25.6 247.467H8.533C3.82 247.467 0 251.287 0 256s3.82 8.533 8.533 8.533H25.6C29.992 385.201 126.799 482.008 247.467 486.4v17.067c0 4.713 3.82 8.533 8.533 8.533s8.533-3.82 8.533-8.533V486.4C385.2 482.008 482.007 385.201 486.4 264.533h17.067c4.713 0 8.533-3.82 8.533-8.533s-3.82-8.533-8.533-8.533zm-256 221.866c-111.249-4.368-200.432-93.551-204.8-204.8h17.067c4.339 101.831 85.902 183.394 187.733 187.733v17.067zm0-34.645c-92.061-4.497-165.697-78.095-170.24-170.155h102.485c3.999 35.632 32.122 63.755 67.755 67.755v102.4zm0-119.637c-26.163-3.804-46.713-24.354-50.517-50.517h50.517v50.517zm0-67.584H196.95c3.804-26.163 24.354-46.713 50.517-50.517v50.517zm0-67.755c-35.632 3.999-63.755 32.122-67.755 67.755h-102.4c4.497-92.061 78.095-165.697 170.155-170.24v102.485zm0-119.979C145.636 64.072 64.072 145.636 59.733 247.467H42.667c4.368-111.249 93.551-200.432 204.8-204.8v17.066zm17.066 17.579c92.062 4.497 165.697 78.095 170.24 170.155H332.288c-3.999-35.632-32.122-63.755-67.755-67.755v-102.4zm0 119.637c26.163 3.804 46.713 24.354 50.517 50.517h-50.517v-50.517zm0 67.584h50.517c-3.804 26.163-24.354 46.713-50.517 50.517v-50.517zm0 67.755c35.632-3.999 63.755-32.122 67.755-67.755h102.4c-4.497 92.062-78.095 165.697-170.155 170.24V332.288zm0 137.045v-17.067c101.831-4.339 183.394-85.902 187.733-187.733h17.067c-4.367 111.249-93.551 200.433-204.8 204.8zm187.734-221.866c-4.339-101.831-85.902-183.394-187.733-187.733V42.667c111.249 4.368 200.432 93.551 204.8 204.8h-17.067z"/></svg><svg viewBox="0 0 512 512" id="insta" xmlns="http://www.w3.org/2000/svg"><path d="M305 256c0 27.063-21.938 49-49 49s-49-21.938-49-49 21.938-49 49-49 49 21.938 49 49zm0 0"/><path d="M370.594 169.305a45.546 45.546 0 00-10.996-16.903 45.514 45.514 0 00-16.903-10.996c-5.18-2.011-12.96-4.406-27.293-5.058-15.504-.707-20.152-.86-59.402-.86-39.254 0-43.902.149-59.402.856-14.332.656-22.118 3.05-27.293 5.062a45.483 45.483 0 00-16.903 10.996 45.572 45.572 0 00-11 16.903c-2.011 5.18-4.406 12.965-5.058 27.297-.707 15.5-.86 20.148-.86 59.402 0 39.25.153 43.898.86 59.402.652 14.332 3.047 22.114 5.058 27.293a45.563 45.563 0 0010.996 16.903 45.514 45.514 0 0016.903 10.996c5.18 2.015 12.965 4.41 27.297 5.062 15.5.707 20.144.856 59.398.856 39.258 0 43.906-.149 59.402-.856 14.332-.652 22.118-3.047 27.297-5.062a48.68 48.68 0 0027.899-27.899c2.011-5.18 4.406-12.96 5.062-27.293.707-15.504.856-20.152.856-59.402 0-39.254-.149-43.902-.856-59.402-.652-14.332-3.047-22.118-5.062-27.297zM256 331.485c-41.691 0-75.488-33.794-75.488-75.485s33.797-75.484 75.488-75.484c41.688 0 75.484 33.793 75.484 75.484S297.688 331.484 256 331.484zm78.469-136.313c-9.742 0-17.64-7.899-17.64-17.64s7.898-17.641 17.64-17.641 17.64 7.898 17.64 17.64c-.004 9.742-7.898 17.64-17.64 17.64zm0 0"/><path d="M256 0C114.637 0 0 114.637 0 256s114.637 256 256 256 256-114.637 256-256S397.363 0 256 0zm146.113 316.605c-.71 15.649-3.199 26.333-6.832 35.684a75.164 75.164 0 01-42.992 42.992c-9.348 3.633-20.035 6.117-35.68 6.832-15.675.715-20.683.887-60.605.887-39.926 0-44.93-.172-60.61-.887-15.644-.715-26.331-3.199-35.68-6.832a72.018 72.018 0 01-26.038-16.957 72.044 72.044 0 01-16.953-26.035c-3.633-9.348-6.121-20.035-6.832-35.68-.723-15.68-.891-20.687-.891-60.609s.168-44.93.887-60.605c.71-15.649 3.195-26.332 6.828-35.684a72.013 72.013 0 0116.96-26.035 72.003 72.003 0 0126.036-16.957c9.352-3.633 20.035-6.117 35.684-6.832C211.07 109.172 216.078 109 256 109s44.93.172 60.605.89c15.649.712 26.332 3.196 35.684 6.825a72.061 72.061 0 0126.04 16.96 72.027 72.027 0 0116.952 26.036c3.637 9.352 6.121 20.035 6.836 35.684.715 15.675.883 20.683.883 60.605s-.168 44.93-.887 60.605zm0 0"/></svg><svg viewBox="0 0 478.856 478.856" fill="#f39727" id="money" xmlns="http://www.w3.org/2000/svg"><path d="M406.872 160.017H6.856A6.848 6.848 0 000 166.857v192.016a6.848 6.848 0 006.84 6.856h272.016a6.857 6.857 0 000-13.712H13.712V173.729H400v17.144a6.848 6.848 0 006.84 6.856h.016a6.848 6.848 0 006.856-6.84v-24.016a6.849 6.849 0 00-6.84-6.856zm-46.512-31.832l-320-72a6.885 6.885 0 00-5.176.896 6.897 6.897 0 00-3.024 4.304l-16 72a6.86 6.86 0 0013.392 2.976l14.504-65.288 313.296 70.488a6.857 6.857 0 003.008-13.376zm-38.856-39.672l-192-80a6.88 6.88 0 00-8.8 3.272l-16 32a6.88 6.88 0 1012.304 6.143v.016l13.128-26.272L316.208 101.2a6.874 6.874 0 005.296-12.687z"/><path d="M326.352 192.017h-63.496a6.857 6.857 0 000 13.712h63.496a6.857 6.857 0 000-13.712zm-127.496.456c-38.881 0-70.4 31.519-70.4 70.4.04 38.864 31.536 70.36 70.4 70.4 38.881 0 70.4-31.519 70.4-70.4s-31.519-70.4-70.4-70.4zm0 128c-31.812 0-57.6-25.788-57.6-57.6.035-31.797 25.803-57.565 57.6-57.6 31.812 0 57.6 25.788 57.6 57.6s-25.788 57.6-57.6 57.6zm192-105.6c-42.4 0-88 10.016-88 32v192c0 21.984 45.6 32 88 32s88-10.016 88-32v-192c0-21.984-45.6-32-88-32zm72 223.88c-1.208 4.44-25.2 16.12-72 16.12s-70.792-11.68-72-16v-12.576c17.024 8.576 45.144 12.576 72 12.576s54.984-4.04 72-12.584v12.464zm0-32c-1.208 4.44-25.2 16.12-72 16.12s-70.792-11.68-72-16v-12.576c17.024 8.576 45.144 12.576 72 12.576s54.984-4.04 72-12.584v12.464zm0-32c-1.208 4.44-25.2 16.12-72 16.12s-70.792-11.68-72-16v-12.576c17.024 8.576 45.144 12.576 72 12.576s54.984-4.04 72-12.584v12.464zm0-32c-1.208 4.44-25.2 16.12-72 16.12s-70.792-11.68-72-16v-12.576c17.024 8.576 45.144 12.576 72 12.576s54.984-4.04 72-12.584v12.464zm0-32c-1.208 4.44-25.2 16.12-72 16.12s-70.792-11.68-72-16v-12.576c17.024 8.536 45.144 12.576 72 12.576s54.984-4.04 72-12.584v12.464zm0-32c-1.208 4.44-25.2 16.12-72 16.12s-70.792-11.68-72-16v-12.576c17.024 8.536 45.144 12.576 72 12.576s54.984-4.04 72-12.584v12.464zm-72-15.88c-46.728 0-70.712-11.648-72-15.856v-.048c1.288-4.456 25.272-16.096 72-16.096 46.4 0 70.4 11.472 72 16-1.6 4.528-25.6 16-72 16z"/><path d="M134.856 320.009H74.384l-28.672-31.36v-52l31.664-30.92h57.48a6.857 6.857 0 000-13.712H74.592a6.863 6.863 0 00-4.8 1.944l-35.736 34.856a8.594 8.594 0 00-2.064 5.6v56.896a6.86 6.86 0 001.792 4.624l32.504 35.552a6.855 6.855 0 005.064 2.232h63.504a6.857 6.857 0 000-13.712zm68-65.136h-8c-2.488 0-4-1.392-4-2 0-.608 1.512-2 4-2h20a8 8 0 000-16h-8a8 8 0 00-16 0v.36a18.624 18.624 0 00-16 17.6c.573 10.489 9.507 18.548 20 18.04h8c2.488 0 4 1.392 4 2 0 .608-1.512 2-4 2h-20a8 8 0 000 16h8a8 8 0 0016 0v-.36a18.624 18.624 0 0016-17.6c-.573-10.489-9.507-18.548-20-18.04z"/></svg><svg viewBox="0 0 512 512" id="phone" xmlns="http://www.w3.org/2000/svg"><path d="M436.992 74.953c-99.989-99.959-262.08-99.935-362.039.055s-99.935 262.08.055 362.039 262.08 99.935 362.039-.055a256 256 0 00-.055-362.039zm-49.289 281.652l-.034.034v-.085l-12.971 12.885a68.267 68.267 0 01-64.427 18.432 226.834 226.834 0 01-65.877-29.525 304.371 304.371 0 01-51.968-41.899 306.71 306.71 0 01-38.827-47.104 238.907 238.907 0 01-29.184-59.051 68.265 68.265 0 0117.067-69.717l15.189-15.189c4.223-4.242 11.085-4.257 15.326-.034l.034.034 47.957 47.957c4.242 4.223 4.257 11.085.034 15.326l-.034.034-28.16 28.16c-8.08 7.992-9.096 20.692-2.389 29.867a329.334 329.334 0 0033.707 39.339 327.314 327.314 0 0044.373 37.291c9.167 6.394 21.595 5.316 29.525-2.56l27.221-27.648c4.223-4.242 11.085-4.257 15.326-.034l.034.034 48.043 48.128c4.243 4.222 4.258 11.083.035 15.325z"/></svg><svg viewBox="0 0 513.64 513.64" id="phone2" xmlns="http://www.w3.org/2000/svg"><path d="M499.66 376.96l-71.68-71.68c-25.6-25.6-69.12-15.359-79.36 17.92-7.68 23.041-33.28 35.841-56.32 30.72-51.2-12.8-120.32-79.36-133.12-133.12-7.68-23.041 7.68-48.641 30.72-56.32 33.28-10.24 43.52-53.76 17.92-79.36l-71.68-71.68c-20.48-17.92-51.2-17.92-69.12 0L18.38 62.08c-48.64 51.2 5.12 186.88 125.44 307.2s256 176.641 307.2 125.44l48.64-48.64c17.921-20.48 17.921-51.2 0-69.12z"/></svg><svg viewBox="0 0 512 512" id="placeholder" xmlns="http://www.w3.org/2000/svg"><path d="M256 0C161.896 0 85.333 76.563 85.333 170.667c0 28.25 7.063 56.26 20.49 81.104L246.667 506.5c1.875 3.396 5.448 5.5 9.333 5.5s7.458-2.104 9.333-5.5l140.896-254.813c13.375-24.76 20.438-52.771 20.438-81.021C426.667 76.563 350.104 0 256 0zm0 256c-47.052 0-85.333-38.281-85.333-85.333S208.948 85.334 256 85.334s85.333 38.281 85.333 85.333S303.052 256 256 256z"/></svg><svg viewBox="0 0 512 512" id="resume" xmlns="http://www.w3.org/2000/svg"><path d="M414.007 148.75c5.522 0 10-4.477 10-10V30c0-16.542-13.458-30-30-30h-364c-16.542 0-30 13.458-30 30v452c0 16.542 13.458 30 30 30h364c16.542 0 30-13.458 30-30v-73.672c0-5.523-4.478-10-10-10s-10 4.477-10 10V482c0 5.514-4.486 10-10 10h-364c-5.514 0-10-4.486-10-10V30c0-5.514 4.486-10 10-10h364c5.514 0 10 4.486 10 10v108.75c0 5.523 4.478 10 10 10z"/><path d="M212.007 54c-50.729 0-92 41.271-92 92 0 26.317 11.11 50.085 28.882 66.869.333.356.687.693 1.074 1 16.371 14.979 38.158 24.13 62.043 24.13 23.885 0 45.672-9.152 62.043-24.13a9.993 9.993 0 001.074-1c17.774-16.784 28.884-40.552 28.884-66.869 0-50.729-41.271-92-92-92zm0 164c-16.329 0-31.399-5.472-43.491-14.668 8.789-15.585 25.19-25.332 43.491-25.332s34.702 9.747 43.491 25.332C243.405 212.528 228.336 218 212.007 218zm-16-76v-6.5c0-8.822 7.178-16 16-16s16 7.178 16 16v6.5c0 8.822-7.178 16-16 16s-16-7.178-16-16zm73.94 46.683a69.375 69.375 0 00-29.463-24.697c4.71-6.087 7.523-13.712 7.523-21.986v-6.5c0-19.851-16.149-36-36-36s-36 16.149-36 36v6.5c0 8.274 2.813 15.899 7.523 21.986a69.375 69.375 0 00-29.463 24.697c-8.829-11.953-14.06-26.716-14.06-42.683 0-39.701 32.299-72 72-72s72 32.299 72 72c0 15.967-5.231 30.73-14.06 42.683zM266.007 438h-54c-5.522 0-10 4.477-10 10s4.478 10 10 10h54c5.522 0 10-4.477 10-10s-4.478-10-10-10zm0-56h-142c-5.522 0-10 4.477-10 10s4.478 10 10 10h142c5.522 0 10-4.477 10-10s-4.478-10-10-10zm0-56h-142c-5.522 0-10 4.477-10 10s4.478 10 10 10h142c5.522 0 10-4.477 10-10s-4.478-10-10-10zM88.366 272.93a10.077 10.077 0 00-7.079-2.93c-2.631 0-5.211 1.07-7.07 2.93-1.86 1.86-2.93 4.44-2.93 7.07s1.069 5.21 2.93 7.07a10.092 10.092 0 007.07 2.93c2.64 0 5.21-1.07 7.079-2.93 1.86-1.86 2.931-4.44 2.931-7.07s-1.07-5.21-2.931-7.07zm0 56a10.095 10.095 0 00-7.079-2.93c-2.631 0-5.2 1.07-7.07 2.93-1.86 1.86-2.93 4.44-2.93 7.07s1.069 5.21 2.93 7.07a10.092 10.092 0 007.07 2.93c2.64 0 5.21-1.07 7.079-2.93 1.86-1.86 2.931-4.44 2.931-7.07s-1.07-5.21-2.931-7.07zm0 56a10.095 10.095 0 00-7.079-2.93c-2.631 0-5.2 1.07-7.07 2.93-1.86 1.86-2.93 4.44-2.93 7.07s1.069 5.21 2.93 7.07a10.072 10.072 0 007.07 2.93c2.64 0 5.22-1.07 7.079-2.93 1.86-1.86 2.931-4.44 2.931-7.07s-1.07-5.21-2.931-7.07zM266.007 270h-142c-5.522 0-10 4.477-10 10s4.478 10 10 10h142c5.522 0 10-4.477 10-10s-4.478-10-10-10zm224.995-139.68c-9.715-5.609-21.033-7.099-31.871-4.196-10.836 2.904-19.894 9.854-25.502 19.569L307.787 363.656a10.016 10.016 0 00-1.278 3.891l-8.858 79.344a10.004 10.004 0 009.937 11.11 9.99 9.99 0 005.931-1.948l64.284-47.344a9.983 9.983 0 002.73-3.052l125.841-217.963c11.58-20.056 4.684-45.794-15.372-57.374zM320.063 426.394l4.626-41.432 28.942 16.71-33.568 24.722zm48.15-39.398l-38.105-22 100.985-174.91 38.105 22-100.985 174.91zm120.841-209.303l-9.857 17.073-38.105-22 9.857-17.073a21.855 21.855 0 0113.358-10.25 21.85 21.85 0 0116.694 2.198 21.855 21.855 0 0110.25 13.358 21.856 21.856 0 01-2.197 16.694z"/></svg><svg viewBox="0 0 511.999 511.999" transform="scale(-1 1)" id="search" xmlns="http://www.w3.org/2000/svg"><path d="M508.874 478.708L360.142 329.976c28.21-34.827 45.191-79.103 45.191-127.309C405.333 90.917 314.416 0 202.666 0S0 90.917 0 202.667s90.917 202.667 202.667 202.667c48.206 0 92.482-16.982 127.309-45.191l148.732 148.732c4.167 4.165 10.919 4.165 15.086 0l15.081-15.082c4.165-4.166 4.165-10.92-.001-15.085zM202.667 362.667c-88.229 0-160-71.771-160-160s71.771-160 160-160 160 71.771 160 160-71.771 160-160 160z"/></svg><svg viewBox="0 -10 511.991 511" id="star" xmlns="http://www.w3.org/2000/svg"><path d="M510.652 185.883a27.177 27.177 0 00-23.402-18.688l-147.797-13.418-58.41-136.75C276.73 6.98 266.918.497 255.996.497s-20.738 6.483-25.023 16.53l-58.41 136.75-147.82 13.418c-10.837 1-20.013 8.34-23.403 18.688a27.25 27.25 0 007.937 28.926L121 312.773 88.059 457.86c-2.41 10.668 1.73 21.7 10.582 28.098a27.087 27.087 0 0015.957 5.184 27.14 27.14 0 0013.953-3.86l127.445-76.203 127.422 76.203a27.197 27.197 0 0029.934-1.324c8.851-6.398 12.992-17.43 10.582-28.098l-32.942-145.086 111.723-97.964a27.246 27.246 0 007.937-28.926zM258.45 409.605"/></svg><svg viewBox="0 0 512 512" id="twitter" xmlns="http://www.w3.org/2000/svg"><path d="M256 0C114.637 0 0 114.637 0 256s114.637 256 256 256 256-114.637 256-256S397.363 0 256 0zm116.887 199.602c.113 2.52.168 5.05.168 7.593 0 77.645-59.102 167.18-167.184 167.184h.004-.004c-33.184 0-64.062-9.727-90.066-26.395 4.597.543 9.277.813 14.015.813 27.532 0 52.868-9.39 72.98-25.152-25.722-.477-47.41-17.465-54.894-40.813a58.481 58.481 0 0011.043 1.063 58.8 58.8 0 0015.496-2.07c-26.886-5.384-47.14-29.145-47.14-57.598 0-.266 0-.504.007-.75a58.354 58.354 0 0026.614 7.347c-15.778-10.527-26.149-28.523-26.149-48.91a58.597 58.597 0 017.957-29.535c28.977 35.555 72.282 58.937 121.118 61.394a58.708 58.708 0 01-1.528-13.398c0-32.437 26.317-58.754 58.766-58.754 16.902 0 32.168 7.145 42.89 18.567a117.855 117.855 0 0037.313-14.262c-4.395 13.715-13.707 25.222-25.84 32.5 11.887-1.422 23.215-4.574 33.742-9.254a119.412 119.412 0 01-29.308 30.43zm0 0"/></svg><svg viewBox="0 0 512 512" id="user" xmlns="http://www.w3.org/2000/svg"><path d="M256 0C114.842 0 0 114.842 0 256s114.842 256 256 256 256-114.842 256-256S397.158 0 256 0zm0 471.472c-118.814 0-215.472-96.665-215.472-215.472S137.186 40.528 256 40.528c118.807 0 215.472 96.672 215.472 215.479S374.807 471.472 256 471.472z"/><path d="M256 301.425c-71.997 0-139.361 36.103-189.67 101.65l32.152 24.668c42.466-55.32 98.408-85.79 157.518-85.79s115.051 30.47 157.511 85.79l32.152-24.668C395.354 337.528 327.997 301.425 256 301.425z"/><path d="M256 91.863c-58.103 0-105.372 47.573-105.372 106.047S197.897 303.958 256 303.958s105.372-47.573 105.372-106.047S314.103 91.863 256 91.863zm0 171.567c-35.752 0-64.844-29.389-64.844-65.52s29.092-65.52 64.844-65.52 64.844 29.396 64.844 65.52-29.092 65.52-64.844 65.52z"/></svg><svg viewBox="0 0 512 512" id="viber" xmlns="http://www.w3.org/2000/svg"><path d="M0 256C0 114.6 114.6 0 256 0s256 114.6 256 256-114.6 256-256 256S0 397.4 0 256z"/><path fill="#fff" d="M335.6 394.1h-.4l-1.2-.2c-.7-.2-1.6-.4-2.7-.6-3.2-.7-7.5-1.7-11.7-3.5-93.2-40.1-159.1-106.4-196-197-6.5-15.9-6.7-31.1-.8-44.1 6.2-13.4 18.5-23.6 35.7-29.4 6.8-2.3 13.5-2.3 19.9.1 15 5.5 50.5 53.9 51.3 70 .8 14.2-10.2 21.7-16 25.6-10.3 7-12.2 15.3-6.3 28.5 12.1 27.2 33.2 47.7 62.8 61.1 13.1 5.9 18.9 0 22.2-5 6.3-9.6 13.8-15.2 22.2-16.8 9.2-1.8 19.2 1.2 30.4 9.1l4.5 3.1c7.2 5 14.6 10.2 21.5 15.8 1.3 1.1 2.7 2.1 4.1 3.2 10.3 7.9 23.1 17.7 16.1 37.5-7 20.3-32.3 42.6-55.6 42.6zM168.7 127c-2.3 0-4.6.4-7.1 1.2-14.7 4.9-25.1 13.4-30.2 24.4-4.9 10.6-4.5 23.3.9 36.7 35.9 88.2 100.2 152.8 191 191.9 3.4 1.4 7.1 2.3 10.1 2.9.9.2 1.8.4 2.5.6 17.6-.2 40.1-17.6 46.7-36.2 4.5-12.8-2-18.6-13-27-1.4-1.1-2.9-2.2-4.3-3.3-6.7-5.4-14-10.5-21-15.4l-4.5-3.2c-9.1-6.4-16.7-8.9-23.3-7.6-5.9 1.1-11.2 5.3-16.2 12.8-7.8 11.8-19.8 14.7-33.9 8.3-31.7-14.4-54.4-36.5-67.5-65.9-7.7-17.3-4.6-30.4 9.6-40 8.1-5.5 12.4-9.9 11.9-17.4-.7-12.5-33.7-57.5-45.2-61.8-2.1-.6-4.3-1-6.5-1zm210.7 131.1h-.3c-11.4-.2-11.5-10.8-11.6-15.8 0-1.3 0-2.6-.2-3.8-8.1-64.2-37.4-94.4-101.1-104.2-1-.1-2-.2-3.1-.3-4.4-.3-14.8-1.1-14.2-11.5.2-4 1.5-7.1 3.9-9.2 3.7-3.3 8.7-2.9 12.4-2.7 1.2.1 2.4.2 3.1.1l.4-.1h.4c65.8 2.2 122.8 61.9 121.9 127.7 0 .9 0 1.9.1 3 .2 4.4.4 9.9-3.2 13.6-2.1 2.1-4.9 3.2-8.5 3.2zM261.6 119.8c-1.2 0-2.3.1-2.8.5-.1.1-.6.7-.8 2.7 0 .5.1.7.1.7.6.5 3.8.8 5.5.9 1.3.1 2.7.2 3.9.4 67.7 10.4 100.3 44 109 112.2.2 1.5.2 3.2.3 4.8.1 6.6.7 6.6 2.5 6.7 1.2.1 1.7-.2 1.9-.3.8-.8.6-4.6.5-6.7-.1-1.2-.1-2.4-.1-3.5.8-60.8-51.8-116-112.6-118.3-1.5.2-3.1.1-4.6-.1-.8.1-1.8 0-2.8 0z"/><path fill="#fff" d="M346.2 245.5c-2.8 0-5.1-.7-7-2.2-3.8-3.1-4.1-8.1-4.4-12.1-.1-1.2-.1-2.3-.3-3.3-6.4-38.4-19.4-52-58.2-60.7-1-.2-2.2-.4-3.3-.5-4.2-.6-9.4-1.3-12.4-5.3-1.8-2.4-2.4-5.5-1.8-9.1 2-12.1 13.2-10.2 18.6-9.4 1 .2 1.9.3 2.8.4 43.3 5.2 78.3 42.8 77.9 83.9v.6c-.1.7-.1 1.8 0 3 .1 3.9.5 13.1-9.3 14.6-.8.1-1.7.1-2.6.1zm-75.3-94c-2.3 0-2.5.8-2.7 2.3-.2 1.3-.1 1.9.1 2 .6.9 4.1 1.3 6.1 1.6 1.4.2 2.8.4 4.1.7 42.5 9.5 58.4 26.1 65.4 68.3.2 1.3.3 2.8.4 4.3.1 1.5.3 4.9.9 5.4 0 0 .6.3 2.4 0 1.2-.2 1.5-.2 1.4-5-.1-1.4-.1-2.9.1-4.3.2-36.3-31-69.6-69.7-74.3-1-.1-2.1-.3-3.2-.5-2.6-.3-4.2-.5-5.3-.5z"/><path fill="#fff" d="M315.3 235.7c-2.5 0-4.8-.8-6.7-2.4-2.7-2.1-4.4-5.6-4.8-9.6-1.5-14.8-8.9-22.8-23.3-25.1-2.4-.4-8.2-1.3-10.8-5.7-1.6-2.7-1.7-5.9-.5-9.6 2.7-8 10.5-8.1 14.3-8.2 9.7-.3 20.3 4.7 29.2 13.5 9.3 9.2 14.8 20.9 14.6 31.2.4 9.5-3.2 14.9-10.6 15.8-.5.1-.9.1-1.4.1zm-31.6-51.3c-4.7.1-5.3.8-5.7 2-.5 1.3-.3 1.8-.3 1.8.1.1.7.7 4.3 1.3 18.7 3 29.2 14.3 31.2 33.4.2 1.7.8 2.8 1.4 3.2.2.2.5.4 1.1.3 1.2-.1 2.5-.3 2.3-6.5.1-8-4.4-17.3-11.8-24.7-7.2-7-15.4-11-22.5-10.8z"/></svg></svg>