<svg xmlns="http://www.w3.org/2000/svg" data-name="Out line" width="512" height="512" fill="#f39727">
    <path d="M490.128 80.288l-232-64a8.01 8.01 0 00-4.256 0l-232 64A8 8 0 0016 88v64a8 8 0 008 8h16v40a24.038 24.038 0 0016 22.624v194.752A24.038 24.038 0 0040 440v8a24.027 24.027 0 00-24 24v16a8 8 0 008 8h320v-16H32v-8a8.01 8.01 0 018-8h304v-16H184v-8a24.038 24.038 0 00-16-22.624V222.624A24.039 24.039 0 00184 200v-8h96v-16H56v-16h224v-16H32V94.092l224-61.793 224 61.793V144h-16a8 8 0 00-8 8v48a8.038 8.038 0 01-4.006 6.935l8.012 13.85A24.085 24.085 0 00472 200v-40h16a8 8 0 008-8V88a8 8 0 00-5.872-7.712zM56 440a8.01 8.01 0 018-8h9.376A23.882 23.882 0 0072 440v8H56zm32-240v-8h16v8a23.882 23.882 0 001.376 8H96a8.01 8.01 0 01-8-8zm16 248H88v-8a8.01 8.01 0 018-8h9.376a23.882 23.882 0 00-1.376 8zm16-224v192h-16V224zm16 0h16v192h-16zm-48 0v192H72V224zm32 224v-8a8.01 8.01 0 018-8h32a8.01 8.01 0 018 8v8zm48-248a8.01 8.01 0 01-8 8h-32a8.01 8.01 0 01-8-8v-8h48zm-96-8v8a23.882 23.882 0 001.376 8H64a8.01 8.01 0 01-8-8v-8z"/>
    <path d="M256 48a40 40 0 1040 40 40.046 40.046 0 00-40-40zm0 64a24 24 0 1124-24 24.027 24.027 0 01-24 24zM312 80h32v16h-32zM168 80h32v16h-32zM48 112h152v16H48zM312 112h152v16H312zM408 272a40 40 0 10-40 40 40.046 40.046 0 0040-40zm-64 0a24 24 0 1124 24 24.027 24.027 0 01-24-24z"/>
    <path d="M367.602 409.09L387.056 448H368a8 8 0 00-8 8v40h16v-32h96v32h16v-40a8 8 0 00-8-8h-6.241l19.783-98.918a44.695 44.695 0 00-3-27.06l-17.484-39.339A44.976 44.976 0 00440 256.721V152a8 8 0 00-8-8H304a8 8 0 00-8 8v240a8 8 0 008 8h59.823a71.625 71.625 0 003.779 9.09zM440 392V273.13a28.954 28.954 0 0118.437 16.05l17.484 39.34a28.779 28.779 0 011.932 17.424L457.44 448h-52.497l-23.032-46.064A56.282 56.282 0 01376 376.892V352a8 8 0 0116 0v24a24.027 24.027 0 0024 24h16a8 8 0 008-8zm-32-16v-15.997a39.885 39.885 0 0116-7.188V384h-8a8.01 8.01 0 01-8-8zm16-216v31.195A40.12 40.12 0 01392.805 160zm-112 0h31.195A40.12 40.12 0 01312 191.195zm0 224v-31.195A40.12 40.12 0 01343.195 384zm47.42 0A56.113 56.113 0 00312 336.58V207.42A56.114 56.114 0 00359.42 160h17.16A56.114 56.114 0 00424 207.42v129.158a55.853 55.853 0 00-18.004 5.834A23.996 23.996 0 00360 352v24.892c0 2.373.127 4.745.364 7.108z"/>
</svg>
