<svg height="512" width="512" xmlns="http://www.w3.org/2000/svg">
    <path d="M478.5 83.5h-385C75.028 83.5 60 98.528 60 117v71.5H7.5c-4.142 0-7.5 3.357-7.5 7.5s3.358 7.5 7.5 7.5h90c4.142 0 7.5-3.357 7.5-7.5s-3.358-7.5-7.5-7.5H75V117c0-2.342.455-4.576 1.253-6.64L221.893 256 76.253 401.64A18.365 18.365 0 0175 395v-49c0-4.143-3.358-7.5-7.5-7.5S60 341.857 60 346v49c0 18.472 15.028 33.5 33.5 33.5h385c18.472 0 33.5-15.028 33.5-33.5V117c0-18.472-15.028-33.5-33.5-33.5zM350.107 256l145.64-145.64A18.365 18.365 0 01497 117v278c0 2.342-.455 4.576-1.253 6.64zM478.5 98.5c2.342 0 4.576.455 6.64 1.253l-167.32 167.32c-17.545 17.547-46.094 17.547-63.64 0L86.86 99.753A18.365 18.365 0 0193.5 98.5zm-385 315c-2.342 0-4.576-.455-6.64-1.253l145.64-145.64 11.074 11.074c11.697 11.696 27.062 17.545 42.427 17.545s30.729-5.849 42.426-17.545l11.074-11.074 145.64 145.64a18.365 18.365 0 01-6.64 1.253z"/>
    <path d="M67.5 218.5A7.5 7.5 0 0060 226v22.5H7.5c-4.142 0-7.5 3.357-7.5 7.5s3.358 7.5 7.5 7.5h120c4.142 0 7.5-3.357 7.5-7.5s-3.358-7.5-7.5-7.5H75V226a7.5 7.5 0 00-7.5-7.5zM97.5 323.5c4.142 0 7.5-3.357 7.5-7.5s-3.358-7.5-7.5-7.5H75V286c0-4.143-3.358-7.5-7.5-7.5S60 281.857 60 286v22.5H7.5c-4.142 0-7.5 3.357-7.5 7.5s3.358 7.5 7.5 7.5z"/>
</svg>
