<svg xmlns="http://www.w3.org/2000/svg" viewBox="0 0 512 512">
    <path d="M0 256C0 114.6 114.6 0 256 0s256 114.6 256 256-114.6 256-256 256S0 397.4 0 256z"/>
    <path fill="#fff" d="M335.6 394.1h-.4l-1.2-.2c-.7-.2-1.6-.4-2.7-.6-3.2-.7-7.5-1.7-11.7-3.5-93.2-40.1-159.1-106.4-196-197-6.5-15.9-6.7-31.1-.8-44.1 6.2-13.4 18.5-23.6 35.7-29.4 6.8-2.3 13.5-2.3 19.9.1 15 5.5 50.5 53.9 51.3 70 .8 14.2-10.2 21.7-16 25.6-10.3 7-12.2 15.3-6.3 28.5 12.1 27.2 33.2 47.7 62.8 61.1 13.1 5.9 18.9 0 22.2-5 6.3-9.6 13.8-15.2 22.2-16.8 9.2-1.8 19.2 1.2 30.4 9.1l4.5 3.1c7.2 5 14.6 10.2 21.5 15.8 1.3 1.1 2.7 2.1 4.1 3.2 10.3 7.9 23.1 17.7 16.1 37.5-7 20.3-32.3 42.6-55.6 42.6zM168.7 127c-2.3 0-4.6.4-7.1 1.2-14.7 4.9-25.1 13.4-30.2 24.4-4.9 10.6-4.5 23.3.9 36.7 35.9 88.2 100.2 152.8 191 191.9 3.4 1.4 7.1 2.3 10.1 2.9.9.2 1.8.4 2.5.6 17.6-.2 40.1-17.6 46.7-36.2 4.5-12.8-2-18.6-13-27-1.4-1.1-2.9-2.2-4.3-3.3-6.7-5.4-14-10.5-21-15.4l-4.5-3.2c-9.1-6.4-16.7-8.9-23.3-7.6-5.9 1.1-11.2 5.3-16.2 12.8-7.8 11.8-19.8 14.7-33.9 8.3-31.7-14.4-54.4-36.5-67.5-65.9-7.7-17.3-4.6-30.4 9.6-40 8.1-5.5 12.4-9.9 11.9-17.4-.7-12.5-33.7-57.5-45.2-61.8-2.1-.6-4.3-1-6.5-1zm210.7 131.1h-.3c-11.4-.2-11.5-10.8-11.6-15.8 0-1.3 0-2.6-.2-3.8-8.1-64.2-37.4-94.4-101.1-104.2-1-.1-2-.2-3.1-.3-4.4-.3-14.8-1.1-14.2-11.5.2-4 1.5-7.1 3.9-9.2 3.7-3.3 8.7-2.9 12.4-2.7 1.2.1 2.4.2 3.1.1l.4-.1h.4c65.8 2.2 122.8 61.9 121.9 127.7 0 .9 0 1.9.1 3 .2 4.4.4 9.9-3.2 13.6-2.1 2.1-4.9 3.2-8.5 3.2zM261.6 119.8c-1.2 0-2.3.1-2.8.5-.1.1-.6.7-.8 2.7 0 .5.1.7.1.7.6.5 3.8.8 5.5.9 1.3.1 2.7.2 3.9.4 67.7 10.4 100.3 44 109 112.2.2 1.5.2 3.2.3 4.8.1 6.6.7 6.6 2.5 6.7 1.2.1 1.7-.2 1.9-.3.8-.8.6-4.6.5-6.7-.1-1.2-.1-2.4-.1-3.5.8-60.8-51.8-116-112.6-118.3-1.5.2-3.1.1-4.6-.1-.8.1-1.8 0-2.8 0z"/>
    <path fill="#fff" d="M346.2 245.5c-2.8 0-5.1-.7-7-2.2-3.8-3.1-4.1-8.1-4.4-12.1-.1-1.2-.1-2.3-.3-3.3-6.4-38.4-19.4-52-58.2-60.7-1-.2-2.2-.4-3.3-.5-4.2-.6-9.4-1.3-12.4-5.3-1.8-2.4-2.4-5.5-1.8-9.1 2-12.1 13.2-10.2 18.6-9.4 1 .2 1.9.3 2.8.4 43.3 5.2 78.3 42.8 77.9 83.9v.6c-.1.7-.1 1.8 0 3 .1 3.9.5 13.1-9.3 14.6-.8.1-1.7.1-2.6.1zm-75.3-94c-2.3 0-2.5.8-2.7 2.3-.2 1.3-.1 1.9.1 2 .6.9 4.1 1.3 6.1 1.6 1.4.2 2.8.4 4.1.7 42.5 9.5 58.4 26.1 65.4 68.3.2 1.3.3 2.8.4 4.3.1 1.5.3 4.9.9 5.4 0 0 .6.3 2.4 0 1.2-.2 1.5-.2 1.4-5-.1-1.4-.1-2.9.1-4.3.2-36.3-31-69.6-69.7-74.3-1-.1-2.1-.3-3.2-.5-2.6-.3-4.2-.5-5.3-.5z"/>
    <path fill="#fff" d="M315.3 235.7c-2.5 0-4.8-.8-6.7-2.4-2.7-2.1-4.4-5.6-4.8-9.6-1.5-14.8-8.9-22.8-23.3-25.1-2.4-.4-8.2-1.3-10.8-5.7-1.6-2.7-1.7-5.9-.5-9.6 2.7-8 10.5-8.1 14.3-8.2 9.7-.3 20.3 4.7 29.2 13.5 9.3 9.2 14.8 20.9 14.6 31.2.4 9.5-3.2 14.9-10.6 15.8-.5.1-.9.1-1.4.1zm-31.6-51.3c-4.7.1-5.3.8-5.7 2-.5 1.3-.3 1.8-.3 1.8.1.1.7.7 4.3 1.3 18.7 3 29.2 14.3 31.2 33.4.2 1.7.8 2.8 1.4 3.2.2.2.5.4 1.1.3 1.2-.1 2.5-.3 2.3-6.5.1-8-4.4-17.3-11.8-24.7-7.2-7-15.4-11-22.5-10.8z"/>
</svg>
